<svg width="54" height="10" viewBox="0 0 54 10" fill="none" xmlns="http://www.w3.org/2000/svg">
<g clip-path="url(#clip0_2721_842)">
<path d="M11.105 6.21001C10.352 8.88857 7.29296 10.5187 4.27231 9.85074C1.25289 9.18294 -0.585226 6.46985 0.168132 3.79146C0.920784 1.11259 3.97985 -0.517692 6.99962 0.15011C10.0201 0.817912 11.858 3.53131 11.105 6.21001Z" fill="#F7931A"/>
<path d="M8.12248 4.28811C8.23471 3.62281 7.66353 3.26515 6.88251 3.02656L7.13586 2.12533L6.51728 1.98861L6.27063 2.8661C6.10801 2.83016 5.94099 2.79626 5.77502 2.76266L6.02344 1.87939L5.40522 1.74268L5.15169 2.6436C5.01709 2.61641 4.88495 2.58954 4.75669 2.56126L4.75739 2.55845L3.90432 2.36954L3.73977 2.95547C3.73977 2.95547 4.19872 3.04875 4.18903 3.05453C4.43956 3.11 4.48484 3.25703 4.47726 3.37359L4.18867 4.40029C4.20594 4.4042 4.22832 4.40982 4.25298 4.41857C4.23237 4.41404 4.21035 4.40904 4.18762 4.4042L3.7831 5.84246C3.75245 5.90996 3.67475 6.0112 3.49963 5.97277C3.50579 5.98073 3.05001 5.87324 3.05001 5.87324L2.74292 6.5012L3.5479 6.67916C3.69765 6.71244 3.84441 6.74728 3.98888 6.7801L3.73289 7.69165L4.35076 7.82836L4.60429 6.9265C4.77307 6.96713 4.93692 7.00463 5.09725 7.03994L4.84461 7.93758L5.46318 8.0743L5.71918 7.16447C6.77398 7.3415 7.56716 7.27009 7.90102 6.42401C8.17005 5.74277 7.88763 5.34981 7.33265 5.09356C7.73682 5.01091 8.04126 4.77513 8.12248 4.28811ZM6.70914 6.04573C6.51799 6.72697 5.22463 6.3587 4.80531 6.26635L5.145 5.05872C5.56431 5.15153 6.90894 5.33528 6.70914 6.04573ZM6.90048 4.27826C6.72606 4.89794 5.64958 4.5831 5.30039 4.50591L5.60836 3.41062C5.95755 3.48781 7.08212 3.63186 6.90048 4.27826Z" fill="white"/>
<path d="M16.521 3.02614C16.9782 3.02614 17.3732 3.0988 17.7051 3.24145C18.0387 3.38551 18.3139 3.57957 18.5346 3.82363C18.7524 4.06894 18.9145 4.35565 19.0191 4.68424C19.1231 5.01377 19.1752 5.36798 19.1752 5.7472C19.1752 6.32969 19.0549 6.87999 18.8119 7.39873C18.569 7.91826 18.2393 8.36887 17.82 8.75324C17.4011 9.13714 16.9063 9.43979 16.3359 9.66338C15.7663 9.88713 15.147 9.999 14.4821 9.999C14.3961 9.999 14.2449 9.99682 14.0314 9.99291C13.8178 9.989 13.5724 9.96947 13.2976 9.9365C13.021 9.90228 12.7285 9.85166 12.4197 9.78385C12.111 9.71729 11.8178 9.62401 11.5417 9.50557L14.0104 0.306344L16.2215 0.00244141L15.3376 3.26692C15.5268 3.1913 15.7175 3.1327 15.9077 3.09005C16.0982 3.04802 16.3026 3.02614 16.521 3.02614ZM14.6663 8.4434C14.9993 8.4434 15.3131 8.37075 15.6079 8.22809C15.9035 8.08528 16.1586 7.89247 16.3723 7.65232C16.586 7.41107 16.7552 7.13936 16.8785 6.83577C17.0018 6.53218 17.0642 6.21547 17.0642 5.88594C17.0642 5.48111 16.9879 5.16533 16.8359 4.93705C16.6838 4.70971 16.4025 4.59534 15.9939 4.59534C15.86 4.59534 15.6875 4.61799 15.4736 4.65846C15.259 4.70143 15.067 4.79065 14.8949 4.92486L13.9537 8.39168C14.0104 8.40059 14.0606 8.40903 14.1034 8.417C14.1454 8.42559 14.1917 8.43169 14.2379 8.4359C14.2867 8.44075 14.3425 8.44325 14.41 8.44325C14.4775 8.44325 14.5619 8.4434 14.6663 8.4434Z" fill="white"/>
<path d="M21.4683 9.82252H19.3564L21.1399 3.16685H23.2663L21.4683 9.82252ZM22.496 2.35592C22.2013 2.35592 21.934 2.27811 21.6969 2.12218C21.4578 1.96718 21.3394 1.72859 21.3394 1.40703C21.3394 1.23016 21.3799 1.06422 21.4602 0.907662C21.5418 0.751414 21.6484 0.616887 21.782 0.502514C21.9153 0.389078 22.0698 0.298453 22.2453 0.230172C22.4218 0.162986 22.6097 0.129395 22.8098 0.129395C23.1044 0.129395 23.3702 0.207206 23.6083 0.363141C23.8454 0.519858 23.9647 0.758447 23.9647 1.07829C23.9647 1.25578 23.9243 1.42234 23.8433 1.57859C23.7628 1.73484 23.6562 1.86936 23.5226 1.98374C23.3903 2.09733 23.2344 2.18764 23.0593 2.2553C22.8826 2.32358 22.6955 2.35592 22.496 2.35592Z" fill="white"/>
<path d="M25.1169 1.50849L27.3289 1.20459L26.7857 3.16643H29.1547L28.7269 4.70985H26.3722L25.745 7.03794C25.6872 7.232 25.6544 7.41324 25.6453 7.58168C25.6349 7.75089 25.659 7.89621 25.7161 8.01855C25.7728 8.1412 25.8748 8.23573 26.0228 8.30261C26.1701 8.37057 26.381 8.40479 26.6576 8.40479C26.8854 8.40479 27.1074 8.38557 27.322 8.34745C27.5354 8.30995 27.7515 8.25776 27.9704 8.18948L28.1279 9.63258C27.8425 9.72539 27.5334 9.80524 27.2004 9.87242C26.8669 9.94055 26.4721 9.97336 26.0158 9.97336C25.3597 9.97336 24.851 9.88696 24.4886 9.71493C24.1268 9.54165 23.8709 9.30493 23.7178 9.00525C23.5669 8.70666 23.4994 8.36245 23.5182 7.97464C23.5378 7.5859 23.6039 7.17731 23.7178 6.74701L25.1169 1.50849Z" fill="white"/>
<path d="M29.0618 7.16469C29.0618 6.59142 29.1664 6.0508 29.3755 5.54472C29.5843 5.03816 29.8851 4.5952 30.2753 4.21505C30.6641 3.83677 31.1379 3.53709 31.6955 3.31709C32.2505 3.09835 32.8719 2.98804 33.5567 2.98804C33.9854 2.98804 34.3682 3.02398 34.7051 3.09601C35.0433 3.16866 35.3494 3.26257 35.6262 3.38038L34.8978 4.8491C34.7075 4.78067 34.51 4.72035 34.3058 4.66567C34.1015 4.60989 33.852 4.58301 33.5569 4.58301C32.852 4.58301 32.2947 4.79848 31.88 5.228C31.4668 5.65784 31.2588 6.23642 31.2588 6.96219C31.2588 7.39234 31.3634 7.74015 31.5734 8.00624C31.7824 8.27233 32.1684 8.40467 32.7288 8.40467C33.0054 8.40467 33.2724 8.37905 33.528 8.32905C33.7856 8.27843 34.013 8.21467 34.2133 8.13936L34.371 9.64497C34.1039 9.73684 33.8094 9.8198 33.4862 9.89246C33.1624 9.96262 32.7769 9.99902 32.33 9.99902C31.7399 9.99902 31.2404 9.92246 30.8319 9.77168C30.4231 9.61856 30.0854 9.41528 29.8194 9.15778C29.5519 8.89966 29.3599 8.59826 29.2411 8.25233C29.1224 7.90671 29.0618 7.54359 29.0618 7.16469Z" fill="white"/>
<path d="M38.4435 9.99902C37.9395 9.99902 37.5017 9.9309 37.1303 9.79605C36.7599 9.66121 36.4532 9.472 36.2106 9.22669C35.9676 8.98263 35.7858 8.69341 35.6613 8.36014C35.5367 8.02702 35.4768 7.65812 35.4768 7.25391C35.4768 6.74688 35.5686 6.24002 35.7541 5.73456C35.9388 5.228 36.2127 4.77286 36.5753 4.36833C36.9351 3.96318 37.3789 3.63193 37.9014 3.37365C38.4235 3.1171 39.0239 2.98804 39.6983 2.98804C40.1932 2.98804 40.6287 3.05632 41.0052 3.19116C41.38 3.32569 41.6887 3.51647 41.9327 3.76053C42.174 4.00583 42.3574 4.2938 42.4808 4.62754C42.605 4.96004 42.6663 5.32987 42.6663 5.7344C42.6663 6.23986 42.5757 6.74673 42.396 7.25375C42.2161 7.75827 41.9492 8.21452 41.5969 8.61998C41.2452 9.02451 40.8055 9.3556 40.2773 9.61278C39.7498 9.86996 39.1381 9.99902 38.4435 9.99902ZM39.4991 4.58317C39.186 4.58317 38.9092 4.66379 38.6722 4.82301C38.4344 4.9841 38.2346 5.1866 38.0736 5.43081C37.9108 5.67612 37.7901 5.94362 37.7085 6.23439C37.6276 6.5258 37.588 6.80126 37.588 7.06298C37.588 7.48531 37.6648 7.81421 37.8158 8.05093C37.9689 8.28639 38.2439 8.40483 38.6437 8.40483C38.9578 8.40483 39.2332 8.32483 39.4716 8.16389C39.708 8.00405 39.908 7.8014 40.0702 7.55671C40.232 7.31266 40.3537 7.04438 40.4353 6.75314C40.5151 6.46267 40.5558 6.18564 40.5558 5.9244C40.5558 5.50315 40.4793 5.17347 40.3269 4.93707C40.1747 4.7016 39.8985 4.58317 39.4991 4.58317Z" fill="white"/>
<path d="M44.9674 9.82252H42.8538L44.6373 3.16685H46.7647L44.9674 9.82252ZM45.9935 2.35592C45.6989 2.35592 45.4318 2.27811 45.1951 2.12218C44.9572 1.96718 44.8378 1.72859 44.8378 1.40703C44.8378 1.23016 44.8788 1.06422 44.9593 0.907662C45.0398 0.751414 45.1471 0.616887 45.2807 0.502514C45.4133 0.389078 45.5693 0.298453 45.7444 0.230172C45.9199 0.162986 46.1077 0.129395 46.3071 0.129395C46.6024 0.129395 46.8691 0.207206 47.1066 0.363141C47.3443 0.519858 47.4643 0.758447 47.4643 1.07829C47.4643 1.25578 47.4216 1.42234 47.3418 1.57859C47.262 1.73484 47.1547 1.86936 47.0217 1.98374C46.8878 2.09733 46.7338 2.18764 46.5583 2.2553C46.3815 2.32358 46.194 2.35592 45.9935 2.35592Z" fill="white"/>
<path d="M48.2868 3.46952C48.4471 3.42795 48.6261 3.37796 48.8208 3.32358C49.0162 3.26921 49.2345 3.21858 49.4783 3.17296C49.7195 3.12593 49.9917 3.0878 50.2911 3.05827C50.5904 3.02812 50.9315 3.01343 51.3104 3.01343C52.4243 3.01343 53.1921 3.30108 53.616 3.87467C54.0395 4.44825 54.1128 5.23324 53.838 6.22822L52.8665 9.82192H50.7407L51.6822 6.30385C51.7396 6.08416 51.7847 5.87182 51.818 5.66432C51.8517 5.4587 51.8497 5.27746 51.8105 5.12059C51.7729 4.96559 51.6845 4.83871 51.5472 4.74043C51.4079 4.64372 51.1973 4.59512 50.9117 4.59512C50.6364 4.59512 50.3562 4.62137 50.0703 4.672L48.686 9.82176H46.5593L48.2868 3.46952Z" fill="white"/>
</g>
<defs>
<clipPath id="clip0_2721_842">
<rect width="54" height="10" fill="white"/>
</clipPath>
</defs>
</svg>
