<svg width="70" height="40" viewBox="0 0 70 40" fill="none" xmlns="http://www.w3.org/2000/svg">
<g clip-path="url(#clip0_2721_814)">
<path d="M22.2499 34.9342V32.9432C22.2499 32.1816 21.7695 31.6829 20.9448 31.6829C20.5325 31.6829 20.0841 31.8143 19.7759 32.2473C19.5357 31.8839 19.1914 31.6829 18.675 31.6829C18.3307 31.6829 17.9864 31.7834 17.7142 32.1468V31.7486H16.9937V34.9342H17.7142V33.1751C17.7142 32.6107 18.0225 32.344 18.5029 32.344C18.9832 32.344 19.2234 32.6416 19.2234 33.1751V34.9342H19.944V33.1751C19.944 32.6107 20.2883 32.344 20.7326 32.344C21.213 32.344 21.4532 32.6416 21.4532 33.1751V34.9342H22.2499ZM32.9384 31.7486H31.7695V30.786H31.0489V31.7486H30.3964V32.3787H31.0489V33.8401C31.0489 34.5708 31.3571 34.9999 32.1818 34.9999C32.4901 34.9999 32.8343 34.8994 33.0745 34.7679L32.8664 34.1687C32.6582 34.3001 32.418 34.3349 32.2459 34.3349C31.9016 34.3349 31.7655 34.1339 31.7655 33.8053V32.3787H32.9344V31.7486H32.9384ZM39.0553 31.679C38.643 31.679 38.3668 31.88 38.1946 32.1429V31.7447H37.474V34.9303H38.1946V33.1365C38.1946 32.6068 38.4348 32.3053 38.8832 32.3053C39.0193 32.3053 39.1914 32.3401 39.3315 32.371L39.5397 31.7061C39.3956 31.679 39.1914 31.679 39.0553 31.679ZM29.8119 32.0115C29.4676 31.7795 28.9872 31.679 28.4708 31.679C27.6462 31.679 27.0977 32.0772 27.0977 32.7074C27.0977 33.237 27.5101 33.5385 28.2306 33.6352L28.5749 33.67C28.9512 33.7357 29.1594 33.8362 29.1594 34.0025C29.1594 34.2344 28.8832 34.4007 28.4028 34.4007C27.9224 34.4007 27.5421 34.2344 27.3019 34.0682L26.9576 34.5978C27.3339 34.8646 27.8503 34.996 28.3668 34.996C29.3275 34.996 29.88 34.563 29.88 33.9677C29.88 33.4032 29.4316 33.1056 28.7471 33.005L28.4028 32.9702C28.0945 32.9354 27.8543 32.8697 27.8543 32.6726C27.8543 32.4406 28.0945 32.3092 28.4748 32.3092C28.8872 32.3092 29.2995 32.4754 29.5077 32.5759L29.8119 32.0115ZM48.9832 31.679C48.5709 31.679 48.2947 31.88 48.1226 32.1429V31.7447H47.402V34.9303H48.1226V33.1365C48.1226 32.6068 48.3627 32.3053 48.8111 32.3053C48.9472 32.3053 49.1194 32.3401 49.2595 32.371L49.4676 31.7138C49.3275 31.679 49.1234 31.679 48.9832 31.679ZM39.7759 33.3414C39.7759 34.304 40.4644 34.9999 41.5293 34.9999C42.0097 34.9999 42.3539 34.8994 42.6982 34.6365L42.3539 34.072C42.0777 34.2731 41.8055 34.3697 41.4933 34.3697C40.9088 34.3697 40.4965 33.9715 40.4965 33.3414C40.4965 32.7421 40.9088 32.344 41.4933 32.313C41.8015 32.313 42.0777 32.4135 42.3539 32.6107L42.6982 32.0463C42.3539 31.7795 42.0097 31.6829 41.5293 31.6829C40.4644 31.679 39.7759 32.3787 39.7759 33.3414ZM46.4412 33.3414V31.7486H45.7206V32.1468C45.4804 31.8491 45.1362 31.6829 44.6878 31.6829C43.7591 31.6829 43.0385 32.3787 43.0385 33.3414C43.0385 34.304 43.7591 34.9999 44.6878 34.9999C45.1682 34.9999 45.5125 34.8336 45.7206 34.536V34.9342H46.4412V33.3414ZM43.7951 33.3414C43.7951 32.7769 44.1714 32.313 44.7919 32.313C45.3764 32.313 45.7887 32.746 45.7887 33.3414C45.7887 33.9058 45.3764 34.3697 44.7919 34.3697C44.1754 34.3349 43.7951 33.9019 43.7951 33.3414ZM35.1722 31.679C34.2114 31.679 33.5229 32.344 33.5229 33.3375C33.5229 34.3349 34.2114 34.996 35.2082 34.996C35.6886 34.996 36.169 34.8646 36.5493 34.563L36.205 34.0643C35.9288 34.2653 35.5845 34.3968 35.2443 34.3968C34.7959 34.3968 34.3515 34.1958 34.2475 33.6352H36.6854C36.6854 33.5347 36.6854 33.469 36.6854 33.3684C36.7174 32.344 36.0969 31.679 35.1722 31.679ZM35.1722 32.2782C35.6206 32.2782 35.9288 32.545 35.9969 33.0398H34.2795C34.3475 32.6107 34.6558 32.2782 35.1722 32.2782ZM53.0745 33.3414V30.4883H52.3539V32.1468C52.1137 31.8491 51.7695 31.6829 51.3211 31.6829C50.3924 31.6829 49.6718 32.3787 49.6718 33.3414C49.6718 34.304 50.3924 34.9999 51.3211 34.9999C51.8015 34.9999 52.1458 34.8336 52.3539 34.536V34.9342H53.0745V33.3414ZM50.4284 33.3414C50.4284 32.7769 50.8047 32.313 51.4252 32.313C52.0097 32.313 52.422 32.746 52.422 33.3414C52.422 33.9058 52.0097 34.3697 51.4252 34.3697C50.8047 34.3349 50.4284 33.9019 50.4284 33.3414ZM26.3051 33.3414V31.7486H25.5845V32.1468C25.3443 31.8491 25.0001 31.6829 24.5517 31.6829C23.623 31.6829 22.9024 32.3787 22.9024 33.3414C22.9024 34.304 23.623 34.9999 24.5517 34.9999C25.0321 34.9999 25.3764 34.8336 25.5845 34.536V34.9342H26.3051V33.3414ZM23.627 33.3414C23.627 32.7769 24.0033 32.313 24.6238 32.313C25.2082 32.313 25.6206 32.746 25.6206 33.3414C25.6206 33.9058 25.2082 34.3697 24.6238 34.3697C24.0033 34.3349 23.627 33.9019 23.627 33.3414Z" fill="white"/>
<path d="M40.3962 7.55542H29.5715V26.3363H40.3962V7.55542Z" fill="#FF5A00"/>
<path d="M30.2922 16.9459C30.2922 13.1302 32.1497 9.74356 35 7.55541C32.9023 5.96263 30.2562 5 27.3699 5C20.5324 5 15 10.3428 15 16.9459C15 23.549 20.5324 28.8918 27.3699 28.8918C30.2562 28.8918 32.9023 27.9291 35 26.3363C32.1457 24.1791 30.2922 20.7616 30.2922 16.9459Z" fill="#EB001B"/>
<path d="M55 16.9459C55 23.549 49.4676 28.8918 42.6301 28.8918C39.7438 28.8918 37.0977 27.9291 35 26.3363C37.8863 24.1443 39.7078 20.7616 39.7078 16.9459C39.7078 13.1302 37.8503 9.74356 35 7.55541C37.0937 5.96263 39.7398 5 42.6261 5C49.4676 5 55 10.3776 55 16.9459Z" fill="#F79E1B"/>
</g>
<defs>
<clipPath id="clip0_2721_814">
<rect width="40" height="30" fill="white" transform="translate(15 5)"/>
</clipPath>
</defs>
</svg>
