<svg width="60" height="30" viewBox="0 0 60 30" fill="none" xmlns="http://www.w3.org/2000/svg">
<path d="M12.9523 10.1709C12.3062 9.82515 11.4631 9.65186 10.423 9.65186H6.39642C6.07757 9.65186 5.90142 9.77599 5.86795 10.024L4.23219 18.017C4.21519 18.0955 4.24042 18.1673 4.30765 18.2326C4.37449 18.298 4.45857 18.3305 4.55926 18.3305H6.47188C6.80734 18.3305 6.99172 18.2066 7.02557 17.9583L7.47849 15.8035C7.49503 15.699 7.55403 15.6141 7.65472 15.5487C7.75534 15.4835 7.88119 15.4408 8.03219 15.4212C8.18319 15.4018 8.32557 15.392 8.46003 15.392C8.59411 15.392 8.75342 15.3986 8.93826 15.4116C9.12265 15.4247 9.24019 15.431 9.29057 15.431C10.7333 15.431 11.8658 15.1145 12.688 14.481C13.5099 13.8476 13.9213 12.9694 13.9213 11.846C13.9213 11.0755 13.598 10.5172 12.9523 10.1709ZM10.8761 12.5709C10.792 13.0281 10.5741 13.3283 10.2218 13.472C9.86942 13.6159 9.36611 13.6875 8.71188 13.6875L7.88134 13.7071L8.30926 11.6108C8.34265 11.4673 8.45165 11.3954 8.63634 11.3954H9.11465C9.78542 11.3954 10.2723 11.4707 10.5743 11.6207C10.8761 11.771 10.9768 12.0878 10.8761 12.5709Z" fill="#003087"/>
<path d="M55.4457 9.65186H53.5835C53.3985 9.65186 53.2896 9.72371 53.2564 9.86742L51.6204 18.0171L51.5952 18.0562C51.5952 18.1219 51.6288 18.1836 51.6961 18.2424C51.7628 18.3011 51.8471 18.3305 51.9476 18.3305H53.6088C53.9271 18.3305 54.1033 18.2066 54.1373 17.9583L55.7731 9.94557V9.92611C55.773 9.74329 55.6636 9.65186 55.4457 9.65186Z" fill="#009CDE"/>
<path d="M32.9469 12.8057C32.9469 12.7406 32.9131 12.6784 32.8464 12.6198C32.7791 12.561 32.7035 12.5315 32.6199 12.5315H30.682C30.4971 12.5315 30.3462 12.5971 30.229 12.7274L27.5614 15.7836L26.4541 12.845C26.3699 12.6362 26.1855 12.5315 25.9005 12.5315H24.0127C23.9286 12.5315 23.8532 12.561 23.7865 12.6198C23.7192 12.6784 23.6858 12.7407 23.6858 12.8057C23.6858 12.8321 23.8494 13.2172 24.1765 13.9616C24.5036 14.7062 24.8559 15.5095 25.2334 16.3715C25.6109 17.2333 25.8079 17.6907 25.8248 17.7426C24.4489 19.2055 23.7613 19.9892 23.7613 20.0935C23.7613 20.2634 23.8702 20.3482 24.0884 20.3482H26.0263C26.2107 20.3482 26.3616 20.2831 26.4793 20.1524L32.8967 12.9429C32.9301 12.9169 32.9469 12.8714 32.9469 12.8057Z" fill="#003087"/>
<path d="M50.9913 12.5317H49.0785C48.8435 12.5317 48.7013 12.7472 48.6509 13.1782C48.2143 12.656 47.4178 12.3945 46.2599 12.3945C45.0519 12.3945 44.0241 12.7472 43.1771 13.4525C42.3297 14.1578 41.9062 14.9873 41.9062 15.9406C41.9062 16.7113 42.1956 17.3251 42.7743 17.782C43.3532 18.2394 44.1291 18.4677 45.1025 18.4677C45.5889 18.4677 46.0838 18.3892 46.5871 18.2326C47.0905 18.0759 47.4844 17.867 47.7701 17.6057C47.7701 17.6188 47.753 17.6775 47.7197 17.782C47.6859 17.8866 47.6693 17.9651 47.6693 18.017C47.6693 18.2263 47.7781 18.3305 47.9966 18.3305H49.7332C50.0515 18.3305 50.2363 18.2066 50.2866 17.9583L51.3185 12.8451C51.335 12.7667 51.3099 12.695 51.2429 12.6296C51.1756 12.5644 51.0919 12.5317 50.9913 12.5317ZM47.7071 16.3911C47.2793 16.7176 46.7634 16.8808 46.1594 16.8808C45.6726 16.8808 45.2787 16.7765 44.9766 16.5674C44.6745 16.3588 44.5235 16.0714 44.5235 15.7054C44.5235 15.2225 44.7332 14.8141 45.1527 14.4811C45.5717 14.148 46.0923 13.9815 46.7131 13.9815C47.1824 13.9815 47.5726 14.0893 47.8832 14.3047C48.1934 14.5202 48.3489 14.8174 48.3489 15.1962C48.3489 15.6663 48.1349 16.0648 47.7071 16.3911Z" fill="#009CDE"/>
<path d="M22.4024 12.5317H20.4897C20.2544 12.5317 20.1121 12.7472 20.0618 13.1782C19.6088 12.656 18.8118 12.3945 17.6709 12.3945C16.4629 12.3945 15.4351 12.7472 14.588 13.4525C13.7406 14.1578 13.3171 14.9873 13.3171 15.9406C13.3171 16.7113 13.6066 17.3251 14.1854 17.782C14.7643 18.2394 15.5401 18.4677 16.5133 18.4677C16.9828 18.4677 17.4697 18.3892 17.9729 18.2326C18.4762 18.0759 18.8789 17.867 19.1809 17.6057C19.1136 17.7624 19.0802 17.8996 19.0802 18.017C19.0802 18.2263 19.1892 18.3305 19.4074 18.3305H21.1438C21.4624 18.3305 21.6471 18.2066 21.6975 17.9583L22.7293 12.8451C22.7458 12.7667 22.7208 12.695 22.6538 12.6296C22.5867 12.5644 22.5028 12.5317 22.4024 12.5317ZM19.1181 16.4008C18.6901 16.7212 18.1656 16.8808 17.5452 16.8808C17.0584 16.8808 16.6683 16.7765 16.3749 16.5674C16.0811 16.3588 15.9344 16.0714 15.9344 15.7054C15.9344 15.2225 16.1441 14.8141 16.5637 14.4811C16.9828 14.148 17.503 13.9815 18.124 13.9815C18.5935 13.9815 18.9836 14.0893 19.2943 14.3047C19.6044 14.5202 19.7598 14.8174 19.7598 15.1962C19.7598 15.6794 19.5459 16.0812 19.1181 16.4008Z" fill="#003087"/>
<path d="M41.5414 10.1709C40.8954 9.82515 40.0525 9.65186 39.0122 9.65186H35.0108C34.675 9.65186 34.4904 9.77599 34.4571 10.024L32.8213 18.017C32.8043 18.0955 32.8295 18.1673 32.8968 18.2326C32.9634 18.298 33.0477 18.3305 33.1484 18.3305H35.2119C35.4132 18.3305 35.5474 18.2457 35.6146 18.0759L36.0677 15.8035C36.0843 15.699 36.1431 15.6141 36.2438 15.5487C36.3445 15.4835 36.4702 15.4408 36.6214 15.4212C36.7723 15.4018 36.9147 15.392 37.0492 15.392C37.1833 15.392 37.3426 15.3986 37.5272 15.4116C37.7118 15.4247 37.8295 15.431 37.8795 15.431C39.3225 15.431 40.4548 15.1145 41.2771 14.481C42.0991 13.8476 42.5102 12.9694 42.5102 11.846C42.5103 11.0755 42.1872 10.5172 41.5414 10.1709ZM38.9618 13.3937C38.5927 13.5895 38.039 13.6874 37.3009 13.6874L36.4955 13.707L36.9235 11.6108C36.9567 11.4672 37.0657 11.3954 37.2505 11.3954H37.7034C38.0724 11.3954 38.366 11.4084 38.5845 11.4345C38.8022 11.4608 39.0122 11.5422 39.2135 11.6793C39.415 11.8165 39.5155 12.0157 39.5155 12.2769C39.5155 12.8255 39.3308 13.1976 38.9618 13.3937Z" fill="#009CDE"/>
</svg>
