<svg width="40" height="20" viewBox="0 0 40 20" fill="none" xmlns="http://www.w3.org/2000/svg">
<path d="M17.3333 19.7116H14.093L16.1197 0.351074H19.3598L17.3333 19.7116Z" fill="#00579F"/>
<path d="M29.0796 0.824254C28.4404 0.432522 27.4267 0 26.1733 0C22.9734 0 20.7201 2.63619 20.7063 6.40515C20.6797 9.18587 22.3196 10.7304 23.5461 11.6575C24.7997 12.605 25.2259 13.2234 25.2259 14.0679C25.2131 15.3649 24.2129 15.9628 23.28 15.9628C21.9863 15.9628 21.2931 15.6545 20.2397 14.9329L19.813 14.6236L19.3596 18.9696C20.1196 19.5045 21.5197 19.9792 22.9734 20C26.3733 20 28.5868 17.4046 28.613 13.3882C28.626 11.1842 27.76 9.49548 25.8932 8.11552C24.7598 7.22967 24.0658 6.63236 24.0658 5.72598C24.0791 4.902 24.6528 4.05803 25.9321 4.05803C26.9855 4.0167 27.7595 4.40788 28.3458 4.79934L28.6389 5.00493L29.0796 0.824254Z" fill="#00579F"/>
<path d="M33.3863 12.8529C33.6531 11.7406 34.68 7.43594 34.68 7.43594C34.6665 7.47727 34.9463 6.30317 35.1063 5.58239L35.3327 7.25061C35.3327 7.25061 35.9463 11.8849 36.0796 12.8529C35.5732 12.8529 34.0263 12.8529 33.3863 12.8529ZM37.386 0.351074H34.8797C34.1067 0.351074 33.5195 0.700924 33.1861 1.95743L28.373 19.7113H31.773C31.773 19.7113 32.3327 17.3218 32.453 16.8071C32.826 16.8071 36.1334 16.8071 36.6133 16.8071C36.7063 17.4869 36.9999 19.7113 36.9999 19.7113H40.0001L37.386 0.351074Z" fill="#00579F"/>
<path d="M11.3867 0.351074L8.21338 13.5531L7.86662 10.8756C7.27994 7.78606 5.44 4.42937 3.38672 2.76033L6.29335 19.6911H9.71985L14.813 0.351074H11.3867Z" fill="#00579F"/>
<path d="M5.26663 0.351074H0.053334L0 0.742259C4.06669 2.34888 6.75999 6.22159 7.86654 10.8764L6.73323 1.9785C6.54665 0.741986 5.97326 0.391863 5.26663 0.351074Z" fill="#FAA61A"/>
</svg>
